<mxfile host="Electron" modified="2024-07-20T14:58:25.709Z" agent="Mozilla/5.0 (Macintosh; Intel Mac OS X 10_15_7) AppleWebKit/537.36 (KHTML, like Gecko) draw.io/24.6.4 Chrome/124.0.6367.207 Electron/30.0.6 Safari/537.36" etag="vAtKn2lNjCZHPWtfKKLE" version="24.6.4" type="device">
  <diagram name="페이지-1" id="eGNegOB4lQP5T4Jbs8Um">
    <mxGraphModel dx="1114" dy="894" grid="1" gridSize="10" guides="1" tooltips="1" connect="1" arrows="1" fold="1" page="1" pageScale="1" pageWidth="827" pageHeight="1169" math="0" shadow="0">
      <root>
        <mxCell id="0" />
        <mxCell id="1" parent="0" />
        <mxCell id="kTLKbko_w0uviIFrXt-j-6" style="edgeStyle=orthogonalEdgeStyle;rounded=0;orthogonalLoop=1;jettySize=auto;html=1;endArrow=block;endFill=1;" edge="1" parent="1" source="kTLKbko_w0uviIFrXt-j-1" target="kTLKbko_w0uviIFrXt-j-2">
          <mxGeometry relative="1" as="geometry" />
        </mxCell>
        <mxCell id="kTLKbko_w0uviIFrXt-j-1" value="카탈로그&lt;div&gt;바운디드 컨텍스트&lt;/div&gt;" style="rounded=0;whiteSpace=wrap;html=1;fillColor=#f8cecc;strokeColor=#b85450;" vertex="1" parent="1">
          <mxGeometry x="40" y="230" width="110" height="50" as="geometry" />
        </mxCell>
        <mxCell id="kTLKbko_w0uviIFrXt-j-7" style="edgeStyle=orthogonalEdgeStyle;rounded=0;orthogonalLoop=1;jettySize=auto;html=1;entryX=0;entryY=0.5;entryDx=0;entryDy=0;endArrow=block;endFill=1;" edge="1" parent="1" source="kTLKbko_w0uviIFrXt-j-2" target="kTLKbko_w0uviIFrXt-j-4">
          <mxGeometry relative="1" as="geometry" />
        </mxCell>
        <mxCell id="kTLKbko_w0uviIFrXt-j-8" style="rounded=0;orthogonalLoop=1;jettySize=auto;html=1;entryX=0;entryY=0.5;entryDx=0;entryDy=0;exitX=1;exitY=0.5;exitDx=0;exitDy=0;endArrow=block;endFill=1;" edge="1" parent="1" source="kTLKbko_w0uviIFrXt-j-2" target="kTLKbko_w0uviIFrXt-j-3">
          <mxGeometry relative="1" as="geometry" />
        </mxCell>
        <mxCell id="kTLKbko_w0uviIFrXt-j-9" style="rounded=0;orthogonalLoop=1;jettySize=auto;html=1;entryX=0;entryY=0.5;entryDx=0;entryDy=0;exitX=1;exitY=0.5;exitDx=0;exitDy=0;endArrow=block;endFill=1;" edge="1" parent="1" source="kTLKbko_w0uviIFrXt-j-2" target="kTLKbko_w0uviIFrXt-j-5">
          <mxGeometry relative="1" as="geometry" />
        </mxCell>
        <mxCell id="kTLKbko_w0uviIFrXt-j-2" value="메시지 시스템" style="rounded=0;whiteSpace=wrap;html=1;fillColor=#f8cecc;strokeColor=#b85450;" vertex="1" parent="1">
          <mxGeometry x="230" y="230" width="100" height="50" as="geometry" />
        </mxCell>
        <mxCell id="kTLKbko_w0uviIFrXt-j-3" value="A 바운디드 컨텍스트" style="rounded=0;whiteSpace=wrap;html=1;fillColor=#d5e8d4;strokeColor=#82b366;" vertex="1" parent="1">
          <mxGeometry x="390" y="200" width="120" height="30" as="geometry" />
        </mxCell>
        <mxCell id="kTLKbko_w0uviIFrXt-j-4" value="B 바운디드 컨텍스트" style="rounded=0;whiteSpace=wrap;html=1;fillColor=#d5e8d4;strokeColor=#82b366;" vertex="1" parent="1">
          <mxGeometry x="390" y="240" width="120" height="30" as="geometry" />
        </mxCell>
        <mxCell id="kTLKbko_w0uviIFrXt-j-5" value="C 바운디드 컨텍스트" style="rounded=0;whiteSpace=wrap;html=1;fillColor=#d5e8d4;strokeColor=#82b366;" vertex="1" parent="1">
          <mxGeometry x="390" y="280" width="120" height="30" as="geometry" />
        </mxCell>
        <mxCell id="kTLKbko_w0uviIFrXt-j-10" value="publish" style="text;html=1;align=center;verticalAlign=middle;whiteSpace=wrap;rounded=0;fillColor=#f5f5f5;fontColor=#333333;strokeColor=#666666;" vertex="1" parent="1">
          <mxGeometry x="160" y="190" width="60" height="30" as="geometry" />
        </mxCell>
        <mxCell id="kTLKbko_w0uviIFrXt-j-11" value="subscription" style="text;html=1;align=center;verticalAlign=middle;whiteSpace=wrap;rounded=0;fillColor=#f5f5f5;fontColor=#333333;strokeColor=#666666;" vertex="1" parent="1">
          <mxGeometry x="300" y="180" width="80" height="30" as="geometry" />
        </mxCell>
        <mxCell id="kTLKbko_w0uviIFrXt-j-12" value="카탈로그 바운디드 컨텍스트 개발팀의 관리 영역" style="text;html=1;align=center;verticalAlign=middle;whiteSpace=wrap;rounded=0;fillColor=#f8cecc;strokeColor=#b85450;sketch=1;curveFitting=1;jiggle=2;" vertex="1" parent="1">
          <mxGeometry x="95" y="310" width="190" height="40" as="geometry" />
        </mxCell>
        <mxCell id="kTLKbko_w0uviIFrXt-j-14" value="" style="endArrow=none;dashed=1;html=1;rounded=0;entryX=0;entryY=1;entryDx=0;entryDy=0;strokeWidth=2;fillColor=#f8cecc;strokeColor=#b85450;" edge="1" parent="1" target="kTLKbko_w0uviIFrXt-j-1">
          <mxGeometry width="50" height="50" relative="1" as="geometry">
            <mxPoint x="40" y="360" as="sourcePoint" />
            <mxPoint x="440" y="430" as="targetPoint" />
          </mxGeometry>
        </mxCell>
        <mxCell id="kTLKbko_w0uviIFrXt-j-15" value="" style="endArrow=none;dashed=1;html=1;rounded=0;entryX=0;entryY=1;entryDx=0;entryDy=0;strokeWidth=2;fillColor=#f8cecc;strokeColor=#b85450;" edge="1" parent="1">
          <mxGeometry width="50" height="50" relative="1" as="geometry">
            <mxPoint x="330" y="360" as="sourcePoint" />
            <mxPoint x="330" y="280" as="targetPoint" />
          </mxGeometry>
        </mxCell>
      </root>
    </mxGraphModel>
  </diagram>
</mxfile>
